<svg width="26" height="26" viewBox="0 0 26 26" fill="none" xmlns="http://www.w3.org/2000/svg">
<g clip-path="url(#clip0_26_569)">
<path d="M24.2105 14.5758C25.7668 11.611 22.6034 9.555 18.4673 8.54669C18.7785 7.83941 18.8687 6.91356 17.9912 6.02956C16.8659 4.89816 17.6138 3.25 17.6138 3.25C17.6138 3.25 15.2519 5.42872 16.7432 6.93103C17.2933 7.48475 17.5797 7.97103 17.7166 8.37769C16.5748 8.14234 15.4186 7.98301 14.2558 7.90075C14.6031 6.95662 14.6368 5.77078 13.5424 4.63531C12.0441 3.07897 13.0419 0.8125 13.0419 0.8125C13.0419 0.8125 9.89222 3.80819 11.8808 5.87356C12.6068 6.62675 12.9891 7.28975 13.1743 7.8455C11.9418 7.80853 10.7555 7.86256 9.70169 8.01003C9.82722 7.40269 9.72241 6.70434 9.0525 6.02997C7.92719 4.89856 8.6755 3.25 8.6755 3.25C8.6755 3.25 6.31316 5.42872 7.80491 6.93103C8.2721 7.40147 8.54591 7.82153 8.70313 8.18756C8.52519 8.22656 8.35253 8.26881 8.18638 8.31472C3.05056 7.83412 0.810503 8.89525 1.83385 10.9769C0.0479719 12.7628 0.719097 14.8009 2.95388 16.3605C4.11982 21.1628 4.42003 25.1875 13.2015 25.1875C21.0373 25.1875 22.1199 21.9822 23.0905 17.8799C26.0025 17.3002 25.3821 15.9043 24.2105 14.5758ZM23.4845 14.0961C22.5091 16.1761 18.276 17.7418 13.2015 17.7418C8.12747 17.7418 3.89435 16.1761 2.91853 14.0961C2.89782 14.0343 2.87791 13.9701 2.858 13.9076C3.32275 12.7286 4.83319 11.7057 6.95463 11.0208C6.45616 11.5026 6.35256 12.222 7.66435 12.4743C8.03972 12.5466 9.07038 12.2964 8.61985 11.0175C8.55688 10.8387 8.4541 10.7189 8.32775 10.6466C9.78538 10.3131 11.44 10.1209 13.2015 10.1209C13.399 10.1209 13.5928 10.1278 13.7873 10.1323C12.7709 10.493 11.9418 11.6045 14.0173 11.9324C14.4755 12.0047 15.7337 11.7544 15.1836 10.4756C15.1356 10.3616 15.0585 10.2621 14.9602 10.1871C16.9049 10.3301 18.6668 10.7047 20.0911 11.2446C18.8387 11.1747 17.4493 11.9466 19.6743 13.0333C20.1517 13.2665 21.602 13.4806 21.4025 12.0685C21.3881 11.9664 21.3521 11.8687 21.2969 11.7817C22.4356 12.3817 23.2298 13.1093 23.5447 13.9076L23.4845 14.0961Z" fill="#258CAC"/>
<path d="M10.4961 14.9667C11.8095 14.9667 12.6853 13.7793 13.3715 13.3145C14.3302 12.6645 16.7409 12.411 14.6179 12.3598C12.6041 12.3115 10.1178 13.9462 8.45627 13.8337C5.70515 13.6468 8.5229 14.9667 10.4961 14.9667ZM13.3341 17.3929C13.7981 17.4822 15.0733 17.1727 14.5155 15.5911C13.8854 13.8016 10.0711 16.7648 13.3341 17.3929ZM6.11262 13.4786C5.6694 12.853 5.02671 12.0596 4.76062 12.4728C4.39702 13.0379 4.28246 14.175 4.54652 14.2253C6.61677 14.6222 6.47174 13.9852 6.11262 13.4786ZM18.1478 13.7321C18.5211 13.2698 17.7756 12.1571 17.2971 12.3517C16.548 12.6564 16.1161 12.45 15.7871 12.9123C15.0164 13.995 17.6404 14.3598 18.1478 13.7321ZM17.9146 15.0569C17.3775 14.8201 17.5043 15.6135 16.7109 14.9769C16.1429 14.5211 14.9209 15.6708 15.7269 16.4516C16.6239 17.3206 16.8628 16.4946 17.2398 16.5641C18.006 16.7051 19.3235 15.6785 17.9146 15.0569ZM8.9844 15.3283C8.70449 15.0529 8.32912 15.3852 8.11705 15.7906C7.90702 15.6874 7.73599 15.6635 7.73599 15.6635C7.57552 15.206 7.09818 14.8924 7.09818 14.8924C7.09818 14.8924 7.14165 15.3681 7.20462 15.6001C6.6773 15.4128 6.66105 14.4703 6.66105 14.4703C6.66105 14.4703 6.30721 14.682 6.3393 15.0415C5.75877 14.5731 5.26437 14.7921 5.26437 14.7921C5.26437 14.7921 6.0009 15.2064 6.10246 15.4859C5.6889 15.518 5.44758 15.661 5.30702 15.9937C5.30743 15.9966 6.1244 15.605 6.7289 15.8877C6.49043 16.0827 6.60905 16.5698 6.60905 16.5698C7.17171 15.9734 7.62102 16.0372 7.98055 16.1441C7.93708 16.3265 7.93993 16.493 8.01712 16.5942C8.64071 17.414 10.8129 17.2296 11.3963 16.6234C12.1028 15.8901 10.1398 16.4654 8.9844 15.3283Z" fill="#258CAC"/>
<path d="M10.5189 12.2404C10.334 12.6117 10.3328 12.892 10.5465 13.1837C10.5493 13.1845 10.6326 12.2826 11.1855 11.9089C11.2306 12.2136 11.7092 12.3614 11.7092 12.3614C11.3265 11.0062 12.4437 10.9355 12.4384 10.4492C11.8461 10.4992 11.5097 10.9298 11.5097 10.9298C11.0348 10.8327 10.5201 11.0809 10.5201 11.0809C10.5201 11.0809 10.9511 11.2877 11.1823 11.3531C10.7508 11.7094 9.93346 11.2394 9.93346 11.2394C9.93346 11.2394 9.93346 11.6521 10.2585 11.8085C9.55849 12.0665 9.49268 12.6027 9.49268 12.6027C9.49268 12.6027 10.2264 12.1839 10.5189 12.2404ZM20.899 14.0913C21.0671 13.7719 20.8218 13.44 20.8218 13.44C20.8218 13.44 20.4444 14.3041 19.8858 14.2745C20.0328 14.0843 20.2563 13.6618 20.2563 13.6618C20.2563 13.6618 19.6948 13.7687 19.3706 14.129C19.3706 14.129 18.8441 13.9832 18.3388 14.2952C18.624 14.6892 19.564 14.0811 20.0625 15.3982C20.0625 15.3982 20.3591 14.9948 20.214 14.723C20.8811 14.6941 21.4848 15.3693 21.4868 15.3669C21.4844 15.0053 21.317 14.7811 20.9469 14.5926C21.1484 14.3736 21.9877 14.2741 21.9877 14.2741C21.9877 14.2741 21.6156 13.882 20.899 14.0913Z" fill="#258CAC"/>
</g>
<defs>
<clipPath id="clip0_26_569">
<rect width="26" height="26" fill="white"/>
</clipPath>
</defs>
</svg>
