<svg width="26" height="26" viewBox="0 0 26 26" fill="none" xmlns="http://www.w3.org/2000/svg">
<path d="M15.8067 3.86629C15.8899 3.84108 15.9671 3.79945 16.0339 3.74385C16.1007 3.68825 16.1557 3.61982 16.1956 3.54261C16.2355 3.46539 16.2595 3.38096 16.2662 3.29431C16.2729 3.20765 16.2622 3.12053 16.2346 3.0381C16.207 2.95568 16.1632 2.87962 16.1057 2.81442C16.0483 2.74922 15.9783 2.69621 15.9 2.65852C15.8217 2.62084 15.7366 2.59924 15.6498 2.59501C15.563 2.59078 15.4762 2.604 15.3946 2.63389C14.1765 3.03949 13.416 4.04049 12.9688 5.11299C12.9084 5.25785 12.8534 5.40485 12.8037 5.55369C12.5601 5.09239 12.2485 4.67037 11.8794 4.30179C11.3792 3.80167 10.7823 3.40882 10.1252 3.1473C9.46801 2.88577 8.7644 2.76106 8.05738 2.78079C7.30338 2.80159 6.70148 3.40479 6.68068 4.15749C6.66095 4.86451 6.78566 5.56812 7.04719 6.22529C7.30871 6.88245 7.70156 7.47936 8.20168 7.97949L8.24198 8.01849C7.14979 8.25465 6.16273 8.83636 5.42702 9.67743C4.69132 10.5185 4.24612 11.5742 4.15738 12.6881L4.14958 12.7843C3.97796 14.9256 4.43424 17.0706 5.46258 18.9567L5.93058 19.8121C5.94272 19.8346 5.95658 19.8563 5.97218 19.8771L7.27218 21.6997C7.56682 22.1123 7.94782 22.4558 8.38867 22.7063C8.82952 22.9567 9.31964 23.1081 9.82494 23.1499C10.3302 23.1918 10.8386 23.123 11.3146 22.9484C11.7906 22.7738 12.2229 22.4977 12.5814 22.1391C12.6364 22.084 12.7018 22.0403 12.7737 22.0105C12.8457 21.9807 12.9228 21.9654 13.0006 21.9654C13.0785 21.9654 13.1556 21.9807 13.2275 22.0105C13.2995 22.0403 13.3648 22.084 13.4199 22.1391C13.7783 22.4977 14.2106 22.7738 14.6867 22.9484C15.1627 23.123 15.671 23.1918 16.1763 23.1499C16.6816 23.1081 17.1717 22.9567 17.6126 22.7063C18.0534 22.4558 18.4344 22.1123 18.7291 21.6997L20.0291 19.8784L20.0707 19.8121L20.5374 18.9567C21.5657 17.0706 22.022 14.9256 21.8504 12.7843L21.8439 12.6881C21.7864 11.9702 21.5803 11.2721 21.2389 10.638C20.8974 10.0039 20.428 9.44769 19.8603 9.00453C19.2926 8.56138 18.639 8.24097 17.941 8.06363C17.243 7.88628 16.5158 7.85586 15.8054 7.97429L13.6513 8.33309C13.6643 7.44779 13.8203 6.45199 14.17 5.61219C14.534 4.73469 15.0748 4.11069 15.8054 3.86629M8.98038 11.6663C8.7808 11.7294 8.59569 11.8314 8.43571 11.9664C8.27574 12.1014 8.14406 12.2667 8.04828 12.4528C7.80778 12.9052 7.64268 13.6514 7.79478 14.8695C7.81184 15.0384 7.76218 15.2072 7.6564 15.3399C7.55062 15.4727 7.39711 15.5588 7.2287 15.5798C7.06028 15.6009 6.89031 15.5552 6.75511 15.4526C6.61992 15.35 6.53022 15.1986 6.50518 15.0307C6.33228 13.6475 6.49218 12.6062 6.90168 11.8405C7.31768 11.0605 7.95078 10.6393 8.56958 10.4326C8.73318 10.3781 8.91172 10.3909 9.06592 10.468C9.22012 10.5452 9.33736 10.6804 9.39183 10.844C9.44631 11.0076 9.43356 11.1862 9.3564 11.3404C9.27924 11.4946 9.14398 11.6118 8.98038 11.6663Z" fill="#C51B1B"/>
</svg>
