<svg width="26" height="26" viewBox="0 0 26 26" fill="none" xmlns="http://www.w3.org/2000/svg">
<path d="M5.2002 5.14278C5.2002 3.71928 6.3637 2.51418 7.8392 2.60518C13.6203 2.96138 18.6903 4.90618 22.6618 8.69828C23.7889 9.77338 23.5666 11.5297 22.3979 12.4267L22.0807 12.6711L21.5646 12.0978L21.5555 12.0887C17.7387 8.16918 12.2072 5.86818 6.33249 5.86818H5.2002V5.14278ZM5.2002 7.16688V21.45C5.2002 23.0516 7.028 23.9694 8.3137 23.0113L10.4041 21.4539V21.4565C10.4041 21.8013 10.5411 22.1319 10.7849 22.3757C11.0287 22.6195 11.3593 22.7565 11.7041 22.7565C12.0489 22.7565 12.3795 22.6195 12.6233 22.3757C12.8671 22.1319 13.0041 21.8013 13.0041 21.4565V18.8539C13.0054 18.689 13.0693 18.5309 13.1828 18.4114C13.2964 18.2919 13.4511 18.22 13.6156 18.2102C13.7802 18.2005 13.9423 18.2536 14.0692 18.3589C14.196 18.4641 14.2781 18.6137 14.2989 18.7772V19.5052C14.2989 19.85 14.4359 20.1806 14.6797 20.4244C14.9235 20.6682 15.2541 20.8052 15.5989 20.8052C15.9437 20.8052 16.2743 20.6682 16.5181 20.4244C16.7619 20.1806 16.8989 19.85 16.8989 19.5052V16.5958C17.9714 15.8093 19.6107 14.5626 21.0459 13.4654L20.6156 12.9857C17.0549 9.33528 11.8692 7.16688 6.3312 7.16688H5.2002ZM10.7226 10.7315C10.7225 10.8591 10.6973 10.9854 10.6484 11.1033C10.5995 11.2212 10.5278 11.3282 10.4375 11.4184C10.3472 11.5086 10.24 11.5801 10.1221 11.6289C10.0042 11.6776 9.87781 11.7027 9.7502 11.7026C9.62258 11.7025 9.49624 11.6773 9.37837 11.6284C9.26051 11.5794 9.15343 11.5078 9.06325 11.4175C8.97308 11.3272 8.90157 11.22 8.85282 11.1021C8.80406 10.9842 8.77901 10.8578 8.77909 10.7302C8.77909 10.4725 8.88148 10.2253 9.06371 10.0431C9.24595 9.86081 9.49312 9.75843 9.75085 9.75843C10.0086 9.75843 10.2557 9.86081 10.438 10.0431C10.6202 10.2253 10.7226 10.4725 10.7226 10.7302M14.5901 13.3302C14.5901 13.5879 14.4877 13.8351 14.3055 14.0173C14.1232 14.1995 13.8761 14.3019 13.6183 14.3019C13.3606 14.3019 13.1135 14.1995 12.9312 14.0173C12.749 13.8351 12.6466 13.5879 12.6466 13.3302C12.6466 13.0725 12.749 12.8253 12.9312 12.6431C13.1135 12.4608 13.3606 12.3584 13.6183 12.3584C13.8761 12.3584 14.1232 12.4608 14.3055 12.6431C14.4877 12.8253 14.5901 13.0725 14.5901 13.3302ZM10.733 16.5828C10.733 16.8419 10.6301 17.0904 10.4469 17.2736C10.2636 17.4568 10.0151 17.5597 9.75604 17.5597C9.49694 17.5597 9.24845 17.4568 9.06524 17.2736C8.88202 17.0904 8.77909 16.8419 8.77909 16.5828C8.77909 16.3237 8.88202 16.0752 9.06524 15.892C9.24845 15.7088 9.49694 15.6058 9.75604 15.6058C10.0151 15.6058 10.2636 15.7088 10.4469 15.892C10.6301 16.0752 10.733 16.3237 10.733 16.5828Z" fill="#B08C0F"/>
</svg>
