<svg width="32" height="32" viewBox="0 0 32 32" fill="none" xmlns="http://www.w3.org/2000/svg">
<path d="M15.3882 16.4401C15.4524 16.1613 15.597 15.9074 15.8042 15.7101C15.8683 15.6468 15.9427 15.5947 16.0242 15.5561L16.0322 15.5541C16.2911 15.5983 16.557 15.5389 16.7724 15.3887C16.9879 15.2385 17.1356 15.0096 17.1837 14.7514C17.2317 14.4932 17.1763 14.2265 17.0293 14.0088C16.8824 13.7911 16.6557 13.64 16.3982 13.5881C15.5942 13.4181 14.8782 13.8361 14.4382 14.2481C13.9305 14.7263 13.5791 15.3467 13.4302 16.0281C13.3756 16.2878 13.4263 16.5585 13.5713 16.7807C13.7163 17.0029 13.9436 17.1585 14.2032 17.2131C14.4629 17.2677 14.7336 17.217 14.9558 17.072C15.178 16.9271 15.3336 16.6998 15.3882 16.4401ZM7.04422 11.6601C3.47022 14.5081 3.37622 19.3321 5.05222 22.5821C6.17822 24.7661 8.34222 26.7101 11.5902 26.7101C12.3962 26.7101 12.9762 26.6901 13.4342 26.6701C14.8202 26.6181 15.0742 26.6101 17.0022 27.3881C19.5702 28.4241 22.2982 28.1161 24.5802 26.6781C26.6322 25.3841 27.8102 22.3781 27.6102 19.9381C27.5042 18.6461 27.6202 18.1181 27.7522 17.5181C27.9344 16.7444 28.0177 15.9508 28.0002 15.1561C28.0002 12.5241 27.2202 10.8481 26.4402 9.47611C25.6622 8.10411 24.8162 6.74611 22.4142 5.21611C20.4442 3.96011 16.7082 3.35811 13.7542 4.99611C11.5902 6.20011 10.5082 7.29211 9.20822 9.47611C8.71622 10.3021 8.24622 10.7041 7.04422 11.6601ZM23.2002 16.6001C23.2002 18.3505 22.5049 20.0293 21.2671 21.267C20.0294 22.5048 18.3506 23.2001 16.6002 23.2001C14.8498 23.2001 13.1711 22.5048 11.9333 21.267C10.6956 20.0293 10.0002 18.3505 10.0002 16.6001C10.0002 14.8497 10.6956 13.1709 11.9333 11.9332C13.1711 10.6955 14.8498 10.0001 16.6002 10.0001C18.3506 10.0001 20.0294 10.6955 21.2671 11.9332C22.5049 13.1709 23.2002 14.8497 23.2002 16.6001Z" fill="#CBCE30"/>
</svg>
