<svg width="18" height="16" viewBox="0 0 18 16" fill="none" xmlns="http://www.w3.org/2000/svg">
<path d="M6.75 7C7.37132 7 7.875 6.55228 7.875 6C7.875 5.44772 7.37132 5 6.75 5C6.12868 5 5.625 5.44772 5.625 6C5.625 6.55228 6.12868 7 6.75 7Z" fill="#0D8754"/>
<path d="M11.25 7C11.8713 7 12.375 6.55228 12.375 6C12.375 5.44772 11.8713 5 11.25 5C10.6287 5 10.125 5.44772 10.125 6C10.125 6.55228 10.6287 7 11.25 7Z" fill="#0D8754"/>
<path d="M9 15C4.6575 15 1.125 11.86 1.125 8C1.125 4.14 4.6575 1 9 1C13.3425 1 16.875 4.14 16.875 8C16.875 11.86 13.3425 15 9 15ZM9 2C5.27625 2 2.25 4.69 2.25 8C2.25 11.31 5.27625 14 9 14C12.7238 14 15.75 11.31 15.75 8C15.75 4.69 12.7238 2 9 2Z" fill="#0D8754"/>
<path d="M8.99974 11.5C7.33474 11.5 5.83849 10.56 5.28724 9.16999C5.24809 9.04798 5.26248 8.91731 5.3275 8.80437C5.39251 8.69142 5.50332 8.6046 5.63754 8.56145C5.77176 8.51829 5.91941 8.52201 6.05067 8.57186C6.18193 8.6217 6.28702 8.71395 6.34474 8.82999C6.53825 9.31855 6.89758 9.74169 7.37314 10.041C7.84869 10.3403 8.41703 10.5011 8.99974 10.5011C9.58244 10.5011 10.1508 10.3403 10.6263 10.041C11.1019 9.74169 11.4612 9.31855 11.6547 8.82999C11.756 8.56999 12.0822 8.42999 12.3747 8.52999C12.6672 8.61999 12.8247 8.90999 12.7122 9.16999C12.441 9.85227 11.9382 10.4429 11.2732 10.8602C10.6082 11.2776 9.81381 11.5011 8.99974 11.5Z" fill="#0D8754"/>
</svg>
