<svg width="18" height="16" viewBox="0 0 18 16" fill="none" xmlns="http://www.w3.org/2000/svg">
<path d="M1.57117 7.39108C1.56218 7.29903 1.57481 7.20633 1.60827 7.11885C1.64172 7.03137 1.69527 6.95103 1.7655 6.88292C1.83574 6.81481 1.92114 6.76043 2.01628 6.72321C2.11142 6.686 2.21423 6.66677 2.31817 6.66675H3.7503C3.94921 6.66675 4.13997 6.73698 4.28063 6.86201C4.42128 6.98703 4.5003 7.1566 4.5003 7.33341V13.6667C4.5003 13.8436 4.42128 14.0131 4.28063 14.1381C4.13997 14.2632 3.94921 14.3334 3.7503 14.3334H2.93805C2.75033 14.3335 2.56942 14.2709 2.43105 14.1582C2.29268 14.0454 2.20691 13.8906 2.19067 13.7244L1.57117 7.39108ZM6.7503 7.12508C6.7503 6.84641 6.9453 6.59708 7.22842 6.47841C7.8468 6.21908 8.90017 5.69808 9.3753 4.99375C9.98767 4.08575 10.1032 2.44541 10.1219 2.06975C10.1245 2.01708 10.123 1.96441 10.1309 1.91241C10.2325 1.26141 11.6459 2.02175 12.1878 2.82575C12.4822 3.26175 12.5197 3.83475 12.4889 4.28241C12.4555 4.76108 12.2977 5.22341 12.1428 5.68275L11.8128 6.66175H15.8842C16 6.66174 16.1144 6.6856 16.2181 6.73146C16.3219 6.77731 16.4123 6.84392 16.4822 6.92604C16.5521 7.00817 16.5997 7.10358 16.6212 7.2048C16.6427 7.30601 16.6375 7.41028 16.606 7.50941L14.5923 13.8481C14.5478 13.9879 14.4532 14.1109 14.3229 14.1986C14.1925 14.2862 14.0335 14.3335 13.87 14.3334H7.5003C7.30138 14.3334 7.11062 14.2632 6.96997 14.1381C6.82931 14.0131 6.7503 13.8436 6.7503 13.6667V7.12508Z" stroke="#0D8754" stroke-linecap="round" stroke-linejoin="round"/>
</svg>
