<svg width="18" height="16" viewBox="0 0 18 16" fill="none" xmlns="http://www.w3.org/2000/svg">
<path d="M17.4116 2.49316C17.4036 2.37084 17.3453 2.2554 17.2478 2.16876C17.1503 2.08212 17.0205 2.03031 16.8828 2.02316C13.2435 1.83566 10.3213 2.81941 9.0655 4.66191C8.23582 5.88004 8.23722 7.35941 9.05425 8.77066C8.5892 9.26276 8.24933 9.83841 8.05792 10.4582L6.91394 9.43754C7.46378 8.41691 7.44269 7.35316 6.84363 6.46941C5.9155 5.10754 3.77308 4.37754 1.11316 4.51629C0.975547 4.52343 0.845677 4.57524 0.748205 4.66188C0.650733 4.74853 0.592446 4.86397 0.584409 4.98629C0.427612 7.35066 1.24957 9.25504 2.78168 10.08C3.28727 10.3546 3.86825 10.4999 4.46074 10.5C5.03582 10.4937 5.60196 10.3726 6.1173 10.1457L7.87511 11.7082V13.5C7.87511 13.6326 7.93438 13.7598 8.03987 13.8536C8.14535 13.9474 8.28843 14 8.43761 14C8.5868 14 8.72987 13.9474 8.83536 13.8536C8.94085 13.7598 9.00011 13.6326 9.00011 13.5V11.6569C8.99761 10.8615 9.30213 10.0893 9.86285 9.46941C10.5863 9.8055 11.3887 9.98535 12.205 9.99441C12.9941 9.99668 13.7686 9.80504 14.443 9.44066C16.5158 8.32566 17.6253 5.72816 17.4116 2.49316ZM3.36175 9.22504C2.28316 8.64441 1.67285 7.27004 1.68761 5.50004C3.67886 5.48504 5.22503 6.02941 5.87824 6.98816C6.21925 7.48816 6.2748 8.07129 6.05121 8.67191L4.33488 7.14629C4.22853 7.05648 4.08692 7.00715 3.94024 7.00882C3.79356 7.01049 3.65342 7.06302 3.5497 7.15522C3.44597 7.24742 3.38687 7.372 3.38499 7.50238C3.38311 7.63276 3.43861 7.75863 3.53964 7.85316L5.25597 9.37879C4.58027 9.57754 3.92496 9.52816 3.36175 9.22504ZM13.8601 8.58629C12.9179 9.09316 11.8105 9.13191 10.6855 8.71129L14.4606 5.35504C14.5616 5.26051 14.6171 5.13463 14.6152 5.00425C14.6134 4.87387 14.5543 4.7493 14.4505 4.6571C14.3468 4.5649 14.2067 4.51236 14.06 4.51069C13.9133 4.50902 13.7717 4.55835 13.6653 4.64816L9.88956 8.00004C9.41425 7.00004 9.45714 6.01504 10.0302 5.17816C11.0103 3.74066 13.3349 2.93941 16.3112 3.00129C16.3787 5.64629 15.4787 7.71504 13.8601 8.58629Z" fill="#0D8754"/>
</svg>
